<svg id="Layer_1" data-name="Layer 1" xmlns="http://www.w3.org/2000/svg" viewBox="0 0 448.01 512"><path d="M224,480a32,32,0,0,1-32-32H160a64,64,0,1,0,128,0H256A32,32,0,0,1,224,480ZM433.38,334.81C405.42,308.19,384,280.33,384,185.9c0-79.59-63.39-144.5-144-152.35V16a16,16,0,0,0-32,0V33.56C127.35,41.41,64,106.31,64,185.9c0,94.42-21.39,122.29-49.35,148.91A46.54,46.54,0,0,0,3.36,386,47.72,47.72,0,0,0,48,416H400a47.73,47.73,0,0,0,44.64-30A46.53,46.53,0,0,0,433.38,334.81ZM400,384H48c-14.23,0-21.34-16.47-11.32-26C71.54,324.8,96,287.65,96,185.91,96,118.53,153.23,64,224,64s128,54.52,128,121.9c0,101.35,24.21,138.7,59.28,172.08C421.38,367.57,414.17,384,400,384Z" transform="translate(0 0)" style="fill:#19468a"/></svg>