<svg id="Layer_1" data-name="Layer 1" xmlns="http://www.w3.org/2000/svg" viewBox="0 0 512 384"><path d="M120.81,248C94.85,248,76,264.8,76,288s18.84,39.95,44.8,39.95L131,328c39.21,0,45.06-20.1,45.06-32.08,0-24.68-31.1-47.92-55.2-47.92ZM131,304c-3.51,0-7-.1-10.14-.1-12.48,0-20.8-6.38-20.8-15.95S108.33,272,120.81,272,152,286.36,152,295.93C152,303.1,141.47,304,131,304Zm260.24-56c-24.1,0-55.19,23.24-55.19,47.93,0,12,5.85,32.08,45.06,32.08l10.14-.1c26,0,44.8-16.8,44.8-40S417.15,248,391.19,248Zm0,55.9c-3.12,0-6.63.1-10.14.1-10.53,0-21.06-.9-21.06-8.07,0-9.57,18.72-23.93,31.2-23.93S412,278.38,412,288s-8.32,15.95-20.8,15.95ZM506,163a39.74,39.74,0,0,0-34-19H422.3l-8.07-24.76A80,80,0,0,0,338.17,64H173.83a80,80,0,0,0-76.06,55.22L89.7,144H40A40,40,0,0,0,4.26,201.86L10,213.47A46.63,46.63,0,0,0,27,232a78.45,78.45,0,0,0-11,40V400a48.05,48.05,0,0,0,48,48H80a48.05,48.05,0,0,0,48-48V384H384v16a48.05,48.05,0,0,0,48,48h16a48.05,48.05,0,0,0,48-48V272a78.49,78.49,0,0,0-11-40,46.55,46.55,0,0,0,17-18.57l5.78-11.56A39.77,39.77,0,0,0,506,163ZM128.2,129.14A47.9,47.9,0,0,1,173.84,96H338.17a47.9,47.9,0,0,1,45.64,33.13L404.28,192H107.73l20.47-62.84Zm-89.53,70-5.78-11.59a7.93,7.93,0,0,1,.34-7.78A7.79,7.79,0,0,1,40,176H79.28l-6.45,19.82a80.52,80.52,0,0,0-23,11.29c-4.71-1-8.94-3.52-11.15-7.94ZM96,400a16,16,0,0,1-16,16H64a16,16,0,0,1-16-16V384H96Zm368,0a16,16,0,0,1-16,16H432a16,16,0,0,1-16-16V384h48Zm0-80v32H48V272a48.05,48.05,0,0,1,48-48H416a48.05,48.05,0,0,1,48,48v48Zm15.12-132.41-5.78,11.55c-2.21,4.44-6.44,7-11.15,8a80.56,80.56,0,0,0-23-11.29L432.72,176H472a7.79,7.79,0,0,1,6.81,3.8,7.89,7.89,0,0,1,.34,7.79Z" transform="translate(0 -64)" style="fill:#19468a"/></svg>