<svg id="Layer_1" data-name="Layer 1" xmlns="http://www.w3.org/2000/svg" viewBox="0 0 512 384"><path d="M480,128H448V80a16,16,0,0,0-16-16H304a16,16,0,0,0-16,16v48H224V80a16,16,0,0,0-16-16H80A16,16,0,0,0,64,80v48H32A32,32,0,0,0,0,160V416a32,32,0,0,0,32,32H480a32,32,0,0,0,32-32V160A32,32,0,0,0,480,128ZM320,96h96v32H320ZM96,96h96v32H96ZM480,416H32V160H480ZM424,256H384V216a8,8,0,0,0-8-8H360a8,8,0,0,0-8,8v40H312a8,8,0,0,0-8,8v16a8,8,0,0,0,8,8h40v40a8,8,0,0,0,8,8h16a8,8,0,0,0,8-8V288h40a8,8,0,0,0,8-8V264A8,8,0,0,0,424,256Zm-224,0H88a8,8,0,0,0-8,8v16a8,8,0,0,0,8,8H200a8,8,0,0,0,8-8V264A8,8,0,0,0,200,256Z" transform="translate(0 -64)" style="fill:#19468a"/></svg>