<svg id="Layer_1" data-name="Layer 1" xmlns="http://www.w3.org/2000/svg" viewBox="0 0 496 496"><path d="M256,8C119,8,8,119,8,256S119,504,256,504,504,393,504,256,393,8,256,8ZM472,256c0,118.7-96.1,216-216,216C137.3,472,40,375.9,40,256,40,137.3,136.1,40,256,40,374.7,40,472,136.1,472,256ZM323.1,344.3l-81.2-59a12.08,12.08,0,0,1-4.9-9.7V116a12,12,0,0,1,12-12h14a12,12,0,0,1,12,12V262.3l70.5,51.3a12,12,0,0,1,2.6,16.8l-8.2,11.3a12.08,12.08,0,0,1-16.8,2.6Z" transform="translate(-8 -8)" style="fill:#19468a"/></svg>