<svg id="Layer_1" data-name="Layer 1" xmlns="http://www.w3.org/2000/svg" viewBox="0 0 477.45 496"><path d="M482.7,299.28l-32.61-18.83a195.18,195.18,0,0,0,0-48.9l32.61-18.83a23.94,23.94,0,0,0,11-27.5,247.45,247.45,0,0,0-57.53-99.59,24,24,0,0,0-29.44-4.28l-32.56,18.79a194.62,194.62,0,0,0-42.34-24.48V38.05a24,24,0,0,0-18.49-23.37,249.73,249.73,0,0,0-114.77,0,24,24,0,0,0-18.48,23.37V75.66a194.62,194.62,0,0,0-42.34,24.48l-32.56-18.8a24,24,0,0,0-29.44,4.29,247.45,247.45,0,0,0-57.53,99.59,23.94,23.94,0,0,0,11,27.5l32.61,18.83a195.18,195.18,0,0,0,0,48.9L29.3,299.28a23.94,23.94,0,0,0-11,27.5,247.58,247.58,0,0,0,57.53,99.59,24,24,0,0,0,29.44,4.28l32.56-18.79a194.62,194.62,0,0,0,42.34,24.48V474a24,24,0,0,0,18.48,23.37,249.73,249.73,0,0,0,114.77,0A24,24,0,0,0,331.87,474V436.34a194.62,194.62,0,0,0,42.34-24.48l32.56,18.79a24,24,0,0,0,29.44-4.28,247.58,247.58,0,0,0,57.53-99.59,23.94,23.94,0,0,0-11-27.5ZM417.22,399.74,370.91,373c-27,23.07-36.56,28.87-71,41.06v53.47a217.16,217.16,0,0,1-87.74,0V414.06c-33.62-11.88-43.35-17.4-71-41.06L94.78,399.74a216,216,0,0,1-43.93-76L97.18,297c-6.53-35.42-6.53-46.65,0-82.08L50.85,188.22a216.14,216.14,0,0,1,43.93-76L141.09,139c27.38-23.43,37.07-29.06,71-41.07V44.46a216.8,216.8,0,0,1,87.74,0V97.94c34,12,43.66,17.64,71,41.07l46.31-26.76a216.14,216.14,0,0,1,43.93,76L414.82,215c6.53,35.43,6.53,46.64,0,82.08l46.33,26.74a216,216,0,0,1-43.93,76ZM256,160a96,96,0,1,0,96,96A96.11,96.11,0,0,0,256,160Zm0,160a64,64,0,1,1,64-64A64.07,64.07,0,0,1,256,320Z" transform="translate(-17.28 -8)" style="fill:#19468a"/></svg>