<svg id="Layer_1" data-name="Layer 1" xmlns="http://www.w3.org/2000/svg" viewBox="0 0 512 512"><path d="M349.32,52.26C328.28,35.49,292.94,0,256,0c-36.67,0-71.45,34.77-93.31,52.26-34.59,27.45-109.52,87.9-145.1,117A48,48,0,0,0,0,206.42V464a48,48,0,0,0,48,48H464a48,48,0,0,0,48-48V206.41a48,48,0,0,0-17.6-37.14C458.83,140.16,383.91,79.71,349.32,52.26ZM464,480H48a16,16,0,0,1-16-16V206.16a16,16,0,0,1,5.88-12.39C64.16,172.32,159.66,95.53,182.59,77.32,200.21,63.27,232.32,32,256,32s55.79,31.27,73.41,45.32c22.93,18.21,118.44,95,144.71,116.47A16,16,0,0,1,480,206.18V464a16,16,0,0,1-16,16Zm-8.75-216.31a12,12,0,0,1-1.78,16.9c-22.83,18.43-55.13,44.24-104.15,83.15C328.27,380.54,292.44,416.26,256,416c-36.58.26-72.83-35.91-93.32-52.26-49-38.91-81.32-64.72-104.15-83.15a12,12,0,0,1-1.78-16.9l5-6.21a12,12,0,0,1,16.85-1.78c22.76,18.38,55,44.15,103.94,83,16.85,13.44,50.2,45.69,73.41,45.32,23.22.37,56.56-31.88,73.41-45.32,48.93-38.84,81.18-64.6,103.94-83a12,12,0,0,1,16.85,1.78Z" transform="translate(0)" style="fill:#19468a"/></svg>