<svg id="Layer_1" data-name="Layer 1" xmlns="http://www.w3.org/2000/svg" viewBox="0 0 576 512"><path d="M560,160a16.05,16.05,0,0,0-6,1.2L384,224l-10.3-3.6C397,185.5,416,149.2,416,123,416,55,358.7,0,288,0S160,55.1,160,123c0,11.8,4,25.8,10.4,40.6L20.1,216A32,32,0,0,0,0,245.7V496a15.93,15.93,0,0,0,22,14.8L192,448l172,60.7a64.34,64.34,0,0,0,40,.2L555.9,456A31.92,31.92,0,0,0,576,426.3V176A16,16,0,0,0,560,160ZM176,419.8,31.9,473,30.6,246.1,176,195.6ZM288,32c52.9,0,96,40.8,96,91,0,27-38.1,88.9-96,156.8C230.1,211.9,192,150,192,123c0-50.2,43.1-91,96-91ZM208,419.7V228.8c24.4,35.3,52.1,68,67.7,85.7a16.5,16.5,0,0,0,24.6,0c12.8-14.5,33.7-39.1,54.3-66.9l13.4,4.7V476.2Zm192,56.7V252.2L544.1,199l1.3,226.9Z" style="fill:#19468a"/></svg>