<svg id="NMJ_Service_BlueBack_Image" data-name="NMJ_Service_BlueBack Image" xmlns="http://www.w3.org/2000/svg" viewBox="0 0 820.83 242.39"><path d="M631.7,328.18a5.51,5.51,0,0,0-.92-.13q-31.54,0-63.1,0a3.08,3.08,0,0,0-2.61,1.34c-2.88,3.53-5.82,7-8.74,10.5Q535.39,365,514.46,390.12l-39.72,47.7c-.39.47-.86.87-1.43,1.43-2-2.33-3.83-4.51-5.66-6.71l-54-64.84q-15.87-19.06-31.74-38.13A3.82,3.82,0,0,0,378.7,328q-30.84.06-61.66,0a17,17,0,0,0-2,.2c-.57,3.54-.39,145,.18,146.77h48c0-33.89,0-67.65,0-102,.9,1,1.44,1.57,1.93,2.16q15.6,18.82,31.18,37.67,25,30.18,49.95,60.39a4.65,4.65,0,0,0,4.06,1.91q23-.09,46.06,0a4.69,4.69,0,0,0,4.07-1.88q26.91-32.64,53.93-65.2,13.61-16.42,27.19-32.87c.51-.61,1.06-1.18,1.94-2.16v81.74c0,6.69,0,13.38,0,20,3.39.64,46.77.45,48.37-.14C632.45,470.63,632.23,329.89,631.7,328.18Zm-381.1,0c-.17,11.07,0,22-.07,32.93s0,21.75,0,32.62v33.07c-1-.56-1.64-.87-2.24-1.24l-31.1-19.46-78.5-49L94.36,329.33A6.75,6.75,0,0,0,90.61,328c-16.4.05-32.79,0-49.19,0-.68,0-1.36.12-2,.18-.49,3.9-.31,144.94.16,146.67,2.74.45,46,.34,48-.16V411.79c0-7,0-13.92,0-20.87s-.3-14.06.31-21.44c.86.5,1.34.77,1.8,1.06l53.24,33.36,67,42q22.45,14.07,44.9,28.14a6,6,0,0,0,3.34,1.11c12.95,0,25.91,0,38.86,0a14.44,14.44,0,0,0,1.88-.24V328.17Zm609.29,2.64c0-.85-.1-1.7-.15-2.5-3.34-.51-46.4-.35-48.21.18,0,.66-.11,1.37-.11,2.07,0,2.64,0,5.28,0,7.92,0,31.75-.06,63.5.06,95.25,0,5.53-2.2,7.6-6.77,9a23.47,23.47,0,0,1-6.84.91q-73.18.07-146.36,0H648v31.46h3.64q80.15,0,160.28,0a68.56,68.56,0,0,0,24.17-4.27,44,44,0,0,0,16.52-10.36c4.31-4.44,7.22-9.62,7.22-16Q859.93,387.67,859.89,330.81Zm-192.38,175v42c-.8-.9-1.24-1.34-1.61-1.82q-8.16-10.51-16.3-21-7-9-14-18c-.57-.73-1-1.66-2.19-1.66-3.19,0-6.38,0-9.66,0-.64,2.87-.53,62,.1,63.89,3.66,0,7.37.08,11.06,0a9.66,9.66,0,0,0,.16-1q0-18.47,0-36.94c0-1.69.21-3.38.35-5.51.79.93,1.27,1.46,1.7,2q7.73,9.95,15.42,19.9t15.6,20.07c.46.59,1.13,1.41,1.75,1.45a78.52,78.52,0,0,0,9.08,0V505.64C676.53,505.07,669.54,505.14,667.51,505.81ZM204.9,545.29c.87-.36,1.52-.64,2.16-.92a20.43,20.43,0,0,0,7.83-5.39c4.44-5.31,5.36-11.45,4.09-18a17.26,17.26,0,0,0-9.23-12.45,28.77,28.77,0,0,0-13.62-3.2c-8.79-.11-17.59,0-26.39,0-.78,0-1.56.07-2.44.11-.48,3.12-.37,61.77.14,63.8,3.71.06,7.49.09,11.57,0v-22c3.9,0,7.48.08,11.06,0a3.46,3.46,0,0,1,3.33,1.74c4.36,6.31,8.84,12.54,13.21,18.85a3.16,3.16,0,0,0,3,1.55c3.36-.08,6.72,0,10.08,0a15.7,15.7,0,0,0,2-.31C216,560.86,210.49,553.15,204.9,545.29Zm-7.28-9c-6.05.28-12.13.11-18.5.11V516.6c.35-.15.56-.32.78-.32,5.91,0,11.82,0,17.73.18a12.13,12.13,0,0,1,3.71.86,8.41,8.41,0,0,1,5.88,7.2c.51,3.91-.32,7.44-3.86,9.64A12.73,12.73,0,0,1,197.62,536.31Zm589.06,9c1.09-.46,1.83-.75,2.55-1.06,6-2.61,10.07-7,11.52-13.46a25,25,0,0,0,.33-7.59,17.54,17.54,0,0,0-6.3-12.47c-4.69-3.95-10.37-5.27-16.29-5.39-9.1-.17-18.22-.05-27.33,0-.69,0-1.37.12-2.06.18-.07.62-.15,1-.15,1.41q0,30.57,0,61.14a3,3,0,0,0,.13.71c0,.06.09.12.14.18l.35.32c1.65,0,3.49,0,5.32,0s3.8.3,5.91-.36v-21.7c3.69,0,7.12.12,10.53,0a4.22,4.22,0,0,1,4.1,2.15c4.3,6.25,8.74,12.4,13.08,18.63a2.73,2.73,0,0,0,2.55,1.36c3.51-.06,7,0,10.55,0a16.41,16.41,0,0,0,1.79-.25C797.89,560.86,792.2,553.3,786.68,545.27Zm-8-8.88c-5.5.14-11,.05-16.52,0a9.79,9.79,0,0,1-1.24-.17V516.57a3.54,3.54,0,0,1,.94-.31c5.82,0,11.63.07,17.45.18a10,10,0,0,1,3,.6c4.66,1.64,6.68,4.23,6.85,9a8.9,8.9,0,0,1-5.71,9.11A13.17,13.17,0,0,1,778.64,536.39Zm-663,22.12c0-5.54-.07-10.76,0-16.17,5.53,0,10.71,0,15.9,0s10.31.16,15.62-.12a89.31,89.31,0,0,0-.07-10.61H115.8V516H151c.53-3.08.43-8.82-.12-10.55H104c-.55,2.46-.49,61.67,0,63.53,3,.51,45.89.35,47.55-.18V558.51Zm298.76,0c-.52-3.15-.4-14.23.18-16.13,5.13,0,10.31,0,15.5,0s10.32.22,15.51-.16V531.64H414.12c.06-5.37-.18-10.43.15-15.69,6.05,0,11.88,0,17.7,0s11.76.1,17.63-.07V505.61c-2.79-.59-45.53-.47-47.29.11V569H450V558.47Zm197.36,0H576.33c0-5.52-.12-10.74,0-16.19h31.1a29.22,29.22,0,0,0,0-10.67H576.31c0-5.37-.09-10.43.05-15.67h35.15c.58-3,.47-8.86-.13-10.47-4-.54-45.21-.3-46.83.27-.47,2.81-.34,61.44.18,63.28H612C612.57,566.48,612.49,560.45,611.77,558.47Zm248.05,0H824.26c-.54-2.69-.47-14.1.11-16.24H855.2V531.65H834.29c-3.4,0-6.81.05-10.37,0,.05-5.41-.24-10.47.19-15.65h35.14c.45-2.93.34-9-.13-10.45-2.72-.44-45.1-.32-46.86.13-.54,2.52-.42,61.65.14,63.41a5.4,5.4,0,0,0,.91.15H858.4a5,5,0,0,0,.94-.15.47.47,0,0,0,.2-.12c.06,0,.1-.12.35-.41C859.92,565.43,860,562.12,859.82,558.51ZM81.69,537.05a30.54,30.54,0,0,0-7.14-3.32c-4.47-1.48-9.06-2.59-13.56-4a18.25,18.25,0,0,1-4.56-2.07,6.16,6.16,0,0,1-.83-10c2.53-2.39,5.69-2.78,8.94-2.58,5.18.31,9.72,2.41,14,5.22.64.43,1.32.81,2.15,1.31,2.19-3.05,4.34-5.86,6.2-8.92a29.06,29.06,0,0,0-7.83-5.06,34.67,34.67,0,0,0-13.69-3.09c-4.45-.14-8.77.22-12.84,2.11-5.81,2.68-9.71,7-10.67,13.5-.78,5.21-.18,10.23,3.55,14.39a19.41,19.41,0,0,0,8.68,5.36c3.94,1.29,8,2.22,12,3.45a51.89,51.89,0,0,1,7.37,2.78c4.91,2.43,4.32,9.31-.19,11.7a14.83,14.83,0,0,1-6.67,1.66c-6.71.2-12.5-2.21-17.72-6.23-.87-.66-1.78-1.29-2.86-2.07l-6.88,8.19a6.39,6.39,0,0,0,.56.93,9.71,9.71,0,0,0,.88.81,38.1,38.1,0,0,0,31.62,8.4c9.3-1.52,15.46-7.45,16.47-16.21C89.4,546.59,87.5,540.89,81.69,537.05Zm300,13.89c-1.06.87-1.78,1.49-2.53,2.08-3.8,3-7.73,5.54-12.78,6.08-8.37.89-15-2-19.52-9s-5-14.56-2-22.24A20.06,20.06,0,0,1,366,515.38a23.2,23.2,0,0,1,12.12,5.32c3.62,2.83,2.78,2.89,5.86-.54,1.64-1.83,3.18-3.74,4.72-5.56a4.09,4.09,0,0,0-.47-.84A33.76,33.76,0,0,0,375.64,506a39.73,39.73,0,0,0-17.26-1.41,29.8,29.8,0,0,0-17.65,8.4c-9.23,9.07-12,20.2-9.12,32.58,2.76,11.82,10.2,19.76,21.88,23.28a35,35,0,0,0,22.61-.8,31.12,31.12,0,0,0,13.08-9.42Zm165.89,3.83-3.5-3.6a3.42,3.42,0,0,0-.76.25c-.69.54-1.36,1.12-2.05,1.66-3.72,2.95-7.63,5.31-12.55,6a20.19,20.19,0,0,1-20.15-9.62A23.79,23.79,0,0,1,507,528.05a20.15,20.15,0,0,1,28.23-10.51,60.07,60.07,0,0,1,6.72,4.55c1.27.9,1.63,1,2.62-.15,2.1-2.4,4.16-4.83,6.42-7.47a32.48,32.48,0,0,0-10.27-7.32,37.3,37.3,0,0,0-20.16-2.51,30.56,30.56,0,0,0-20.25,11.18c-6.51,7.86-8.58,17-7.08,26.94,1.69,11.19,7.66,19.45,17.91,24.46,5,2.45,10.33,3.07,15.84,3a31.82,31.82,0,0,0,22.23-9.2c.73-.69,1.4-1.44,2.23-2.3ZM277.83,505.41l-18.58,47.5c-.58-1.44-1-2.37-1.34-3.31q-8.37-21.3-16.7-42.6a2.22,2.22,0,0,0-2.41-1.76c-3.2.08-6.4,0-9.6,0a9.1,9.1,0,0,0-1.64.31c.25.71.4,1.24.61,1.74q9.54,23.16,19.09,46.3c2,4.8,4,9.58,5.93,14.4a2.27,2.27,0,0,0,2.51,1.68c2.07-.09,4.15,0,6.23,0,2.3,0,2.3,0,3.15-2.08q12.32-29.77,24.62-59.56c.32-.78.52-1.6.86-2.64Zm462.21,0h-51.7v11h19.8v17.93c0,5.75,0,11.51,0,17.26s-.06,11.6,0,17.43h11.92c.06-1.18.15-2.2.15-3.21q0-23.15,0-46.28c0-1,.09-2,.16-3.2h19.61C740.13,512.57,740.16,509,740,505.4Zm-425.28.42c0-.07-.08-.13-.13-.18l-.18-.16c-2.91-.43-9.45-.31-11.11.19-.52,3.8-.3,61.71.26,63.41h11.1a8.33,8.33,0,0,0,.22-1.2q0-30.43,0-60.88A6.85,6.85,0,0,0,314.76,505.82Z" transform="translate(-39.1 -328)" style="fill:#fff"/></svg>