<svg id="NMJ_Service_BlueBack_Image" data-name="NMJ Service BlueBack Image" xmlns="http://www.w3.org/2000/svg" viewBox="0 0 900 900"><rect width="900" height="900" style="fill:#19468a"/><path d="M632.19,329a7.54,7.54,0,0,0-.92-.13h-63.1a3.09,3.09,0,0,0-2.61,1.34c-2.88,3.53-5.82,7-8.74,10.5L515,390.92l-39.72,47.71c-.4.47-.86.87-1.43,1.43-2-2.33-3.83-4.52-5.66-6.71l-54-64.84L382.4,330.38a3.79,3.79,0,0,0-3.21-1.57q-30.84.06-61.66,0a14.73,14.73,0,0,0-2,.2c-.58,3.54-.4,145,.17,146.77h48v-102c.9,1,1.44,1.57,1.93,2.16q15.62,18.81,31.18,37.67,25,30.18,49.95,60.39a4.66,4.66,0,0,0,4.06,1.91q23-.09,46.06,0A4.7,4.7,0,0,0,501,474q26.91-32.64,53.94-65.2Q568.5,392.41,582.08,376c.51-.61,1.06-1.18,1.94-2.16V475.54c3.39.64,46.77.45,48.37-.14C632.94,471.44,632.71,330.7,632.19,329Zm-381.11,0c-.16,11.08,0,22-.07,32.93s0,21.75,0,32.62V427.6c-1-.56-1.64-.87-2.24-1.24l-31.1-19.45-78.5-49L94.84,330.13a6.66,6.66,0,0,0-3.75-1.32c-16.4,0-32.79,0-49.19,0-.68,0-1.36.11-2,.17-.49,3.9-.31,144.94.16,146.67,2.74.45,46,.34,48-.16V391.73c0-7-.3-14.06.31-21.44.86.5,1.34.77,1.8,1.06l53.25,33.36,67,42,44.9,28.14a6,6,0,0,0,3.34,1.11h38.86a15.1,15.1,0,0,0,1.88-.24V329Zm609.3,2.65c0-.85-.1-1.71-.16-2.5-3.34-.52-46.4-.35-48.21.18,0,.66-.11,1.36-.11,2.07v7.92c0,31.75-.06,63.5.06,95.25,0,5.53-2.2,7.6-6.77,9a23.9,23.9,0,0,1-6.84.91q-73.17.06-146.36,0h-3.51v31.46H812.41a68.79,68.79,0,0,0,24.17-4.27,44.22,44.22,0,0,0,16.52-10.36c4.31-4.44,7.22-9.62,7.22-16q.09-56.82.06-113.68ZM668,506.63v42c-.8-.91-1.24-1.35-1.61-1.82l-16.3-21-14-18c-.57-.74-1-1.67-2.19-1.67h-9.66c-.64,2.87-.53,62,.1,63.89,3.66,0,7.37.08,11.06,0,.07-.33.12-.66.16-1V532.09c0-1.69.21-3.38.34-5.51.79.93,1.27,1.46,1.7,2q7.74,10,15.42,19.9t15.6,20.08c.46.59,1.13,1.4,1.75,1.45a80.89,80.89,0,0,0,9.08,0V506.45c-2.43-.57-9.43-.5-11.45.16ZM205.38,546.09c.87-.36,1.52-.64,2.16-.92a20.24,20.24,0,0,0,7.83-5.39c4.44-5.31,5.36-11.45,4.09-18a17.24,17.24,0,0,0-9.23-12.45,28.75,28.75,0,0,0-13.62-3.2c-8.78-.11-17.58,0-26.39,0-.78,0-1.55.07-2.44.11-.47,3.12-.36,61.77.14,63.8,3.72.06,7.5.09,11.58,0V548c3.89,0,7.47.08,11.06,0a3.49,3.49,0,0,1,3.33,1.74c4.36,6.31,8.83,12.54,13.21,18.85a3.13,3.13,0,0,0,3,1.55c3.36-.08,6.72,0,10.08,0a15.11,15.11,0,0,0,2-.31C216.48,561.66,211,554,205.38,546.09Zm-7.28-9c-6,.29-12.13.11-18.5.11V517.4c.35-.15.56-.32.78-.32,5.91,0,11.82,0,17.73.18a12.09,12.09,0,0,1,3.71.86,8.42,8.42,0,0,1,5.88,7.2c.51,3.91-.32,7.44-3.86,9.64a12.52,12.52,0,0,1-5.74,2.15Zm589.06,9c1.1-.46,1.84-.75,2.55-1.06,6-2.61,10.07-7,11.52-13.46a25.09,25.09,0,0,0,.34-7.59,17.62,17.62,0,0,0-6.3-12.47c-4.69-3.95-10.37-5.27-16.29-5.39-9.1-.17-18.22-.05-27.33,0-.69,0-1.37.12-2.06.18a14,14,0,0,0-.15,1.41v61.14a2.41,2.41,0,0,0,.13.71c0,.06.09.12.14.18l.35.32h5.32c1.83,0,3.79.3,5.9-.36V548c3.69,0,7.12.12,10.54,0a4.22,4.22,0,0,1,4.09,2.15c4.3,6.25,8.74,12.41,13.09,18.63a2.69,2.69,0,0,0,2.54,1.36c3.52-.06,7,0,10.55,0a15.12,15.12,0,0,0,1.79-.25c-5.5-8.23-11.19-15.79-16.72-23.81Zm-8-8.88c-5.5.14-11,0-16.52,0a8.8,8.8,0,0,1-1.24-.17V517.38a3.24,3.24,0,0,1,.94-.31c5.82,0,11.63.07,17.45.18a9.87,9.87,0,0,1,3,.59c4.66,1.64,6.68,4.23,6.85,9a8.88,8.88,0,0,1-5.71,9.11,13.17,13.17,0,0,1-4.8,1.25Zm-663,22.12c0-5.54-.07-10.76,0-16.17h15.9c5.19,0,10.31.16,15.62-.12a87.19,87.19,0,0,0-.07-10.6H116.28V516.81h35.2c.53-3.09.43-8.83-.12-10.55H104.48c-.55,2.46-.49,61.66,0,63.52,3,.51,45.89.35,47.55-.18V559.32Zm298.76,0c-.51-3.15-.39-14.23.18-16.13h15.5c5.19,0,10.32.22,15.51-.16V532.45H414.6c.06-5.37-.18-10.43.15-15.69h17.7c5.83,0,11.77.09,17.63-.07V506.41c-2.79-.59-45.52-.47-47.29.11v63.29h47.69V559.27Zm197.36,0H576.82c0-5.52-.12-10.74,0-16.19h31.09a29,29,0,0,0,0-10.67H576.79c0-5.37-.09-10.43.05-15.66H612c.58-3,.46-8.86-.14-10.48-4-.54-45.21-.29-46.83.27-.46,2.81-.34,61.44.18,63.28h47.27c.58-2.6.49-8.62-.22-10.61Zm248.05,0H824.75c-.54-2.69-.47-14.1.1-16.24h30.84V532.46H834.77c-3.4,0-6.81,0-10.37,0,.05-5.41-.24-10.47.19-15.65h35.14c.46-2.93.35-9-.13-10.46-2.71-.44-45.09-.32-46.85.13-.54,2.52-.42,61.66.14,63.41a4.57,4.57,0,0,0,.9.15h45.1a5.11,5.11,0,0,0,.94-.15.47.47,0,0,0,.2-.12c.06,0,.1-.12.35-.41,0-3.13.1-6.44-.07-10ZM82.17,537.85A30.54,30.54,0,0,0,75,534.53c-4.47-1.47-9.06-2.59-13.56-4a18,18,0,0,1-4.56-2.07A6.15,6.15,0,0,1,54.77,520a6.32,6.32,0,0,1,1.31-1.56c2.53-2.39,5.69-2.78,8.94-2.58,5.18.31,9.72,2.41,14,5.22.64.43,1.32.81,2.15,1.31,2.19-3,4.34-5.86,6.2-8.92a29.28,29.28,0,0,0-7.83-5.06,34.75,34.75,0,0,0-13.69-3.09c-4.45-.14-8.77.22-12.84,2.11-5.81,2.68-9.71,7-10.67,13.5-.78,5.21-.18,10.23,3.55,14.39a19.48,19.48,0,0,0,8.68,5.36c3.94,1.29,8,2.22,12,3.45a51.89,51.89,0,0,1,7.37,2.78c4.91,2.43,4.32,9.31-.19,11.7a14.73,14.73,0,0,1-6.67,1.66c-6.71.2-12.5-2.21-17.72-6.23-.87-.66-1.78-1.29-2.86-2.07l-6.88,8.19a6.2,6.2,0,0,0,.56.93,11.1,11.1,0,0,0,.88.81,38.09,38.09,0,0,0,31.62,8.4c9.3-1.52,15.46-7.45,16.47-16.21C89.88,547.4,88,541.7,82.17,537.85Zm300,13.9c-1.06.86-1.78,1.48-2.53,2.08-3.79,3-7.73,5.53-12.78,6.08-8.36.89-15-2-19.51-9s-5-14.56-2-22.24a20,20,0,0,1,21.13-12.48,23,23,0,0,1,12.12,5.32c3.62,2.83,2.78,2.89,5.86-.54,1.64-1.83,3.18-3.74,4.72-5.56a3.85,3.85,0,0,0-.47-.84,33.66,33.66,0,0,0-12.58-7.76,39.75,39.75,0,0,0-17.27-1.42,29.82,29.82,0,0,0-17.64,8.4c-9.24,9.07-12,20.21-9.12,32.59,2.76,11.82,10.2,19.76,21.88,23.28a35,35,0,0,0,22.61-.8,31.21,31.21,0,0,0,13.08-9.42Zm165.9,3.83-3.5-3.6a2.83,2.83,0,0,0-.76.25c-.7.54-1.36,1.12-2,1.66-3.72,3-7.63,5.31-12.55,6a20.2,20.2,0,0,1-20.15-9.62,23.83,23.83,0,0,1-1.58-21.42,20.15,20.15,0,0,1,26.08-11.49,19.91,19.91,0,0,1,2.15,1,60.47,60.47,0,0,1,6.72,4.55c1.27.9,1.63,1,2.62-.15,2.1-2.4,4.16-4.83,6.42-7.47A32.63,32.63,0,0,0,541.2,508,37.38,37.38,0,0,0,521,505.44a30.61,30.61,0,0,0-20.25,11.18c-6.51,7.86-8.58,17-7.08,26.94,1.69,11.19,7.66,19.45,17.91,24.46,5,2.45,10.33,3.07,15.84,3a31.77,31.77,0,0,0,22.23-9.2c.73-.69,1.4-1.44,2.23-2.3ZM278.31,506.22l-18.58,47.5c-.57-1.44-1-2.37-1.34-3.31q-8.37-21.3-16.7-42.6a2.21,2.21,0,0,0-2.41-1.76c-3.2.08-6.39,0-9.6,0a8.47,8.47,0,0,0-1.64.31c.25.71.4,1.24.61,1.74q9.54,23.16,19.09,46.3c2,4.8,4,9.58,5.93,14.4a2.29,2.29,0,0,0,2.51,1.68c2.07-.09,4.15,0,6.23,0,2.3,0,2.3,0,3.15-2.08q12.33-29.77,24.62-59.56c.32-.78.52-1.6.86-2.64Zm462.21,0h-51.7v11h19.8v35.19c0,5.75-.06,11.6,0,17.43h11.92c.06-1.18.15-2.2.15-3.21V520.35c0-1,.09-2,.16-3.2h19.61c.15-3.77.18-7.34,0-10.95Zm-425.28.42c0-.07-.08-.13-.13-.18l-.18-.16c-2.91-.43-9.45-.31-11.11.19-.51,3.8-.29,61.71.26,63.41h11.11a10.1,10.1,0,0,0,.22-1.2V507.82a7.75,7.75,0,0,0-.16-1.19Z" style="fill:#fff"/></svg>