<svg id="Layer_1" data-name="Layer 1" xmlns="http://www.w3.org/2000/svg" viewBox="0 0 640 320"><path d="M629.8,160.31,416,224l-50.49-25.24A64,64,0,0,0,336.89,192H272V128h72a8,8,0,0,0,8-8V104a8,8,0,0,0-8-8H168a8,8,0,0,0-8,8v16a8,8,0,0,0,8,8h72v64H176v0L37.72,166.84C16.54,163,0,179.92,0,198.33v94.95a32,32,0,0,0,26.28,31.48L96,337.44V384a32,32,0,0,0,32,32H402.63a32,32,0,0,0,22.76-9.51L637.65,191.74a8,8,0,0,0,2.34-5.66V168a8,8,0,0,0-10.19-7.69ZM96,304.91,32,293.27l0-94.94L96,210ZM402.63,384H128V224H336.89a32,32,0,0,1,14.31,3.38l56.15,28.07a16,16,0,0,0,11.72,1l155.35-46.28Zm176.21-89.09C568.38,310.06,544,347.53,544,368a48,48,0,0,0,96,0c0-20.45-24.38-57.92-34.84-73.08-5.94-8.65-20.38-8.65-26.32,0ZM592,384a16,16,0,0,1-16-16c.12-4.89,6.78-18.83,16-34.34,9.22,15.52,15.88,29.45,16,34.33a16,16,0,0,1-16,16Z" transform="translate(0 -96)" style="fill:#19468a"/></svg>