<svg id="Layer_1" data-name="Layer 1" xmlns="http://www.w3.org/2000/svg" viewBox="0 0 512.01 512.01"><path d="M487.8,24.1,387,.8a31.33,31.33,0,0,0-35.8,18.1L304.7,127.4a31.36,31.36,0,0,0,8.9,36.5L367.5,208A350,350,0,0,1,207.9,367.6l-44.1-53.9a31.36,31.36,0,0,0-36.5-8.9L18.9,351.3A31.21,31.21,0,0,0,.8,387L24,487.7A31.23,31.23,0,0,0,54.5,512C306.7,512,512,307.8,512,54.5A31.05,31.05,0,0,0,487.8,24.1ZM55.1,480l-23-99.6,107.4-46L199,407.2c103.6-48.6,159.7-104.9,208.1-208.1l-72.8-59.5,46-107.4,99.6,23C479.7,289.7,289.6,479.7,55.1,480Z" transform="translate(0.01 0.01)" style="fill:#19468a"/></svg>