<svg id="Layer_1" data-name="Layer 1" xmlns="http://www.w3.org/2000/svg" viewBox="0 0 512 448"><path d="M448,224H384V200a56,56,0,0,1,56-56h16a40,40,0,0,0,40-40V72a40,40,0,0,0-40-40H440c-92.6,0-168,75.4-168,168V416a64.06,64.06,0,0,0,64,64H448a64.06,64.06,0,0,0,64-64V288A64.06,64.06,0,0,0,448,224Zm32,192a32,32,0,0,1-32,32H336a32,32,0,0,1-32-32V200A136,136,0,0,1,440,64h16a8,8,0,0,1,8,8v32a8,8,0,0,1-8,8H440a88,88,0,0,0-88,88v56h96a32,32,0,0,1,32,32ZM176,224H112V200a56,56,0,0,1,56-56h16a40,40,0,0,0,40-40V72a40,40,0,0,0-40-40H168C75.4,32,0,107.4,0,200V416a64.06,64.06,0,0,0,64,64H176a64.06,64.06,0,0,0,64-64V288A64.06,64.06,0,0,0,176,224Zm32,192a32,32,0,0,1-32,32H64a32,32,0,0,1-32-32V200A136,136,0,0,1,168,64h16a8,8,0,0,1,8,8v32a8,8,0,0,1-8,8H168a88,88,0,0,0-88,88v56h96a32,32,0,0,1,32,32Z" transform="translate(0 -32)" style="fill:#19468a"/></svg>