<svg id="Layer_1" data-name="Layer 1" xmlns="http://www.w3.org/2000/svg" viewBox="0 0 448.34 512"><path d="M388.1,333.5l52.7-14.3a8,8,0,0,0,5.6-9.8l-4.1-15.5a7.94,7.94,0,0,0-9.7-5.7l-83.2,22.6L255.6,256l93.8-54.8,83.2,22.6a7.94,7.94,0,0,0,9.7-5.7l4.1-15.5a8,8,0,0,0-5.6-9.8l-52.7-14.3L444,145.8a8,8,0,0,0,2.9-10.9L439,121a7.88,7.88,0,0,0-10.8-2.9l-55.9,32.7,14.1-53.3a8,8,0,0,0-5.6-9.8l-15.3-4.1a7.94,7.94,0,0,0-9.7,5.7l-22.3,84.2-93.8,54.8V118.6l61-61.6a8,8,0,0,0,0-11.3L289.5,34.4a7.91,7.91,0,0,0-11.2,0l-38.6,39V8a7.94,7.94,0,0,0-7.9-8H216a7.94,7.94,0,0,0-7.9,8V73.4l-38.6-39a7.91,7.91,0,0,0-11.2,0L147.1,45.7a8,8,0,0,0,0,11.3L208,118.7V228.4l-93.8-54.8L92.1,89.2a7.94,7.94,0,0,0-9.7-5.7L67.1,87.6a8,8,0,0,0-5.6,9.8l14.1,53.3L19.7,118a7.88,7.88,0,0,0-10.8,2.9L1,134.8a8,8,0,0,0,2.9,10.9l55.9,32.7L7.2,192.8a8,8,0,0,0-5.6,9.8l4.1,15.5a7.94,7.94,0,0,0,9.7,5.7l83.2-22.6L192.4,256,98.6,310.8,15.4,288.2a7.94,7.94,0,0,0-9.7,5.7L1.6,309.4a8,8,0,0,0,5.6,9.8l52.7,14.3L4,366.1A8,8,0,0,0,1.1,377L9,390.9a7.88,7.88,0,0,0,10.8,2.9l55.9-32.7L61.6,414.4a8,8,0,0,0,5.6,9.8l15.3,4.1a7.94,7.94,0,0,0,9.7-5.7l22.3-84.2,93.8-54.8V393.3l-61,61.7a8,8,0,0,0,0,11.3l11.2,11.3a7.91,7.91,0,0,0,11.2,0l38.6-39V504a7.94,7.94,0,0,0,7.9,8H232a7.94,7.94,0,0,0,7.9-8V438.6l38.6,39a7.91,7.91,0,0,0,11.2,0l11.2-11.3a8,8,0,0,0,0-11.3L240,393.3V283.7l93.8,54.8,22.3,84.2a7.94,7.94,0,0,0,9.7,5.7l15.3-4.1a8,8,0,0,0,5.6-9.8l-14.1-53.3,55.9,32.7a7.88,7.88,0,0,0,10.8-2.9l7.9-13.9a8,8,0,0,0-2.9-10.9l-56.2-32.7Z" transform="translate(0.07 0)" style="fill:#19468a"/></svg>