<svg id="Layer_1" data-name="Layer 1" xmlns="http://www.w3.org/2000/svg" viewBox="0 0 512 512"><path d="M497.94,225.94,286.06,14.06A48,48,0,0,0,252.12,0H48A48,48,0,0,0,0,48V252.12a48,48,0,0,0,14.06,33.94L225.94,497.94a48,48,0,0,0,67.88,0L497.94,293.82a48,48,0,0,0,0-67.88ZM475.31,271.2,271.2,475.31a16,16,0,0,1-22.63,0L36.69,263.43A15.9,15.9,0,0,1,32,252.12V48A16,16,0,0,1,48,32H252.12a15.86,15.86,0,0,1,11.31,4.69L475.31,248.57a16,16,0,0,1,0,22.63ZM144,124a20,20,0,1,1-20,20,20,20,0,0,1,20-20m0-28a48,48,0,1,0,48,48A48,48,0,0,0,144,96Z" transform="translate(0 0)" style="fill:#19468a"/></svg>