<svg id="Layer_1" data-name="Layer 1" xmlns="http://www.w3.org/2000/svg" viewBox="0 0 512 512"><path d="M256,0C114.62,0,0,114.62,0,256S114.62,512,256,512,512,397.38,512,256,397.38,0,256,0Zm0,480C132.49,480,32,379.51,32,256S132.49,32,256,32,480,132.49,480,256,379.51,480,256,480Zm0-384A160,160,0,1,0,416,256,160,160,0,0,0,256,96Zm0,32c22.34,0,43,6.26,61.34,16.36l-37.57,51.71a63.08,63.08,0,0,0-47.54,0l-37.57-51.71C213,134.26,233.66,128,256,128ZM128,256c0-36.74,15.77-69.67,40.64-93L206.46,215a64,64,0,0,0-15,41c0,1.38.32,2.67.41,4l-61.4,20A127.28,127.28,0,0,1,128,256ZM240,382.38a127.63,127.63,0,0,1-99.45-72.05l61-19.83A64.43,64.43,0,0,0,240,318.34v64ZM224,256a32,32,0,1,1,32,32A32,32,0,0,1,224,256Zm48,126.4v-64a64.39,64.39,0,0,0,38.42-27.84l61,19.83A127.63,127.63,0,0,1,272,382.38ZM320.17,260c.09-1.36.41-2.65.41-4a64,64,0,0,0-15-41L343.36,163C368.23,186.33,384,219.26,384,256a127.92,127.92,0,0,1-2.42,24Z" transform="translate(0 0)" style="fill:#19468a"/></svg>