<svg id="Layer_1" data-name="Layer 1" xmlns="http://www.w3.org/2000/svg" viewBox="0 0 448 512"><path d="M313.6,288c-28.7,0-42.5,16-89.6,16s-60.8-16-89.6-16A134.43,134.43,0,0,0,0,422.4V464a48,48,0,0,0,48,48H400a48,48,0,0,0,48-48V422.4A134.43,134.43,0,0,0,313.6,288ZM416,464a16,16,0,0,1-16,16H48a16,16,0,0,1-16-16V422.4A102.47,102.47,0,0,1,134.4,320c19.6,0,39.1,16,89.6,16s70-16,89.6-16A102.47,102.47,0,0,1,416,422.4ZM224,256A128,128,0,1,0,96,128,128,128,0,0,0,224,256Zm0-224a96,96,0,1,1-96,96A96.15,96.15,0,0,1,224,32Z" transform="translate(0 0)" style="fill:#fff"/></svg>